SplineFontDB: 1.0
FontName: FoekFont
FullName: FoekFont
FamilyName: FoekFont
Weight: Medium
Copyright: Created by Palle Jorgensen with PfaEdit 1.0 (http://pfaedit.sf.net)
Comments: 2004-3-15: Created.
Version: 001.000
ItalicAngle: 0
UnderlinePosition: -100
UnderlineWidth: 50
Ascent: 800
Descent: 200
XUID: [1021 298 12974531 10829609]
FSType: 0
OS2TypoAscent: 0
OS2TypoAOffset: 1
OS2TypoDescent: 0
OS2TypoDOffset: 1
OS2TypoLinegap: 90
OS2WinAscent: 0
OS2WinAOffset: 1
OS2WinDescent: 0
OS2WinDOffset: 1
HheadAscent: 0
HheadAOffset: 1
HheadDescent: 0
HheadDOffset: 1
ScriptLang: 2
 1 latn 1 dflt 
 1 DFLT 1 dflt 
Encoding: CorkEncoding
UnicodeInterp: none
NameList: Adobe Glyph List
DisplaySize: -24
AntiAlias: 1
FitToEm: 1
WinInfo: 0 39 15
BeginChars: 269 40
StartChar: zero
Encoding: 48 48 0
Width: 645
Flags: W
Fore
432.091 562 m 1
 428.736 577 364.899 677.065 348.192 676 c 0
 285.487 672 218.14 636 167.268 563 c 0
 100.869 470 120.575 60 181.278 81 c 1
 548.559 174.539 443.275 512 432.091 562 c 1
148.174 -16 m 0
 127.351 -15 -25.5918 -9 -43.0049 0 c 0
 -52.123 5 -58.0967 232 -62.333 242 c 0
 -71.2783 265 -7.14746 589 13.9072 612 c 0
 48.4316 649 375.584 820 421.937 822 c 0
 452.112 823 605.301 739 612.893 714 c 0
 615.012 709 635.089 579 636.207 574 c 0
 647.867 487 592.553 213 534.623 134 c 0
 478.046 57 468.288 13 376.995 0 c 0
 300.056 -11 222.646 -19 148.174 -16 c 0
EndSplineSet
EndChar
StartChar: one
Encoding: 49 49 1
Width: 325
Flags: W
Fore
279.867 758 m 24
 325.951 773.545 361.395 778 398.573 762 c 1
 386.945 628 365.015 554.422 334.622 422 c 24
 296.732 256.916 294.771 196 220.212 0 c 1
 163.979 -24 125.743 -14 76.2119 0 c 1
 71.4922 98 103.319 158.945 130.057 260 c 24
 164.131 388.782 194.616 460.08 235.892 588 c 17
 179.586 535.333 156.607 524 56.3799 466 c 1
 19.5439 464.109 -6.42773 489.791 -5.04004 526 c 1
 43.8916 588 87.1123 619.942 152.703 672 c 24
 199.762 709.348 224.75 739.408 279.867 758 c 24
EndSplineSet
EndChar
StartChar: two
Encoding: 50 50 2
Width: 520
Flags: W
Fore
-85.6338 -5 m 0
 -97.5752 1 -81.9424 101 -76.4736 115 c 0
 -56.7764 170 335.54 427 360.765 502 c 1
 360.814 501.915 407.108 730.944 17.8877 463 c 1
 9.70898 479 -23.5068 565.564 -8.30566 581 c 1
 57.1416 775.303 561.904 813.831 562.75 604 c 1
 562.458 591 547.064 464 536.301 454 c 0
 476.25 397 160.695 167 125.584 121 c 1
 166.584 121 486.813 162 497.584 121 c 0
 500.292 108 507.364 12 492.482 7 c 0
 399.017 -24 -21.5703 -33 -85.6338 -5 c 0
EndSplineSet
EndChar
StartChar: three
Encoding: 51 51 3
Width: 635
Flags: W
Fore
27.6758 695.3 m 24
 236.482 855.31 461.443 842.561 650.755 724.1 c 24
 669.979 712.07 675.732 693.398 671.021 668.9 c 24
 649.653 557.779 524.119 522 483.662 423 c 8
 457.062 357.905 565.96 402 627.161 352.1 c 9
 625.012 266.924 669.781 212.768 621.651 133.7 c 24
 569.21 47.5508 493.782 26.7266 399.529 -3.09961 c 24
 288.989 -38.0801 217.623 -41.4434 115.432 -15 c 24
 27.4443 7.76758 -52.5908 19.5771 -73.0039 107.3 c 24
 -79.6924 136.04 -65.8867 164.32 -38.4619 184.1 c 24
 -6.33203 207.272 21.2568 198.066 55.8076 191.3 c 24
 96.5605 183.318 107.771 156.355 146.344 143.3 c 24
 207.139 122.724 243.851 108.57 312.266 114.5 c 24
 357.501 118.421 393.709 117.407 427.054 153 c 24
 463.414 191.811 475.566 235.787 458.042 277.7 c 24
 442.342 315.253 400.803 305.943 364.206 324 c 17
 335.7 358.062 286.562 309 236.611 366 c 1
 250.191 426 265.385 422.008 295.895 447 c 24
 348.903 490.424 417.173 461.526 452.59 519 c 24
 476.612 557.983 464.899 593.048 441.104 624 c 24
 425.186 644.707 403.964 644.398 376.336 648 c 24
 317.145 655.717 279.987 642.604 218.097 635.3 c 24
 146.015 626.793 95.3115 581.771 33.0186 606.5 c 24
 17.1348 612.805 10.9805 624.517 9.27832 642 c 24
 7.29785 662.333 9.43262 681.319 27.6758 695.3 c 24
EndSplineSet
EndChar
StartChar: four
Encoding: 52 52 4
Width: 496
Flags: W
Fore
374.176 639 m 1
 329.176 639 151.14 480 125.386 402 c 1
 183.799 393 252.625 375 312.271 390 c 8
 410.797 414.778 399.77 597 374.176 639 c 1
453.74 801 m 24
 499.411 804.464 553.902 803.431 554.335 759 c 16
 555.589 630 531.479 546.846 507.973 411 c 24
 480.221 250.604 491.423 147 420.503 0 c 1
 356.271 -24 300.846 -42.2363 264.503 0 c 24
 206.455 67.46 300.48 153 299.408 249 c 1
 200.053 264 70.958 227.853 -17.1865 291 c 9
 -18.2588 387 l 17
 23.0029 488.297 70.0557 569.749 179.35 657 c 8
 274.996 733.356 340.375 792.402 453.74 801 c 24
EndSplineSet
EndChar
StartChar: five
Encoding: 53 53 5
Width: 408
Flags: W
Fore
97.6377 724 m 1
 223.517 746 377.517 746 462.228 716 c 1
 477.88 680 464.831 606 439.773 600 c 0
 350.775 578.689 259.688 664.096 168.715 594 c 1
 120.252 546 119.788 498 118.503 434 c 1
 206.734 458 282.106 468.418 352.034 420 c 24
 408.755 380.728 426.386 328.582 418.764 254 c 24
 408.165 150.287 375.731 59.3076 277.035 6 c 24
 145.095 -65.2637 19.8418 -42.6748 -69.5596 48 c 24
 -96.0859 74.9043 -75.668 110.22 -79.5742 150 c 25
 -60.4883 160.92 -51.1729 176.622 -30.6367 178 c 24
 56.0479 183.816 67.7607 88.4961 153.142 86 c 24
 191.456 84.8799 224.157 90.1768 251.489 122 c 24
 295.755 173.539 293.416 224.35 279.701 282 c 24
 273.883 306.459 263.942 321.903 240.165 330 c 24
 158.509 357.807 88.0537 284 3.46484 292 c 1
 -18.0762 374 7.81055 432.189 28.0195 522 c 24
 45.9746 601.794 52 658 97.6377 724 c 1
EndSplineSet
EndChar
StartChar: six
Encoding: 54 54 6
Width: 473
Flags: W
Fore
120.813 166 m 24
 113.011 116.446 195.578 91.9287 206.039 86.5996 c 0
 251.284 63.043 304.885 117 343.554 172.486 c 0
 394.016 243.157 331.048 305 284.921 289.043 c 1
 284.921 289.043 132.37 239.387 120.813 166 c 24
-46.5127 215.191 m 24
 -36.2236 359.866 -30.6768 461.936 58.0078 586.143 c 8
 112.531 662.505 170.457 706.016 258.494 721.043 c 24
 373.651 740.699 456.484 715.866 520.652 634.1 c 24
 536.721 613.623 537.725 591.651 527.256 563.8 c 24
 519.663 543.597 508.376 527.812 487.586 522 c 24
 462.989 515.124 452.145 531.844 432.371 542.899 c 24
 390.076 566.547 385.282 609.77 335.403 618.443 c 24
 294.988 625.472 266.48 610.305 225.878 589.943 c 24
 185.334 569.611 159.733 554.146 133.123 517.043 c 24
 110.931 486.101 101.359 464 103.012 428 c 0
 103.756 411.768 95.248 348.194 94.4365 334 c 1
 112.822 338.292 135.266 349.39 153.61 352 c 0
 212.084 360.356 273.604 389.329 330.2 387.043 c 0
 346.024 386.286 436.653 348.658 440.437 334 c 0
 451.896 289.6 473.944 252.643 477.162 245.043 c 0
 483.968 227.572 453.514 126.729 437.517 109.243 c 0
 411.273 81.1289 214.671 -17.4854 179.447 -19 c 0
 156.514 -19.7568 12.1514 23.5576 6.37305 42.5576 c 0
 4.77148 46.3574 -27.1484 87.2432 -27.9922 91.043 c 0
 -35.4424 146.662 -50.1143 164.553 -46.5127 215.191 c 24
EndSplineSet
EndChar
StartChar: seven
Encoding: 55 55 7
Width: 459
Flags: W
Fore
41.0137 738 m 1
 18.0791 693 23.4014 672.935 25.499 633 c 24
 27.4043 596.754 18.5771 562.247 49.1592 546 c 24
 68.9971 535.461 92.0225 543.61 111.804 561 c 24
 135.327 581.68 114.414 621.779 139.499 633 c 1
 225.441 627 380.738 606 380.738 606 c 25
 328.176 473.79 316.932 393.351 245.964 267 c 24
 185.269 158.939 118.928 108 53.4707 9 c 1
 46.8271 -17.2148 47.3438 -39.0801 66.3623 -54 c 24
 97.6768 -78.5654 135.362 -54 177.362 -54 c 1
 238.942 6 255.533 38.3701 297.869 102 c 24
 359.426 194.517 390.454 249.295 437.246 348 c 24
 470.921 419.036 485.961 460.579 509.043 534 c 24
 530.59 602.538 552.615 645 552.253 711 c 1
 478.658 753 394.515 744.964 289.13 750 c 24
 193.984 754.547 118.832 771 41.0137 738 c 1
EndSplineSet
EndChar
StartChar: eight
Encoding: 56 56 8
Width: 645
Flags: W
HStem: -15.5195 94.0898<148.433 180.543> 640.685 103.315<381.418 446.663>
Fore
445.63 566 m 0
 443.029 577.64 394.286 640.835 381.418 640.685 c 0
 322.679 640 280.491 609.645 241.007 552.991 c 0
 189.483 480.832 212.244 438.822 256.231 428.058 c 0
 362.713 402 451.708 538.84 445.63 566 c 0
448.464 266.75 m 24
 455.108 324.068 348.389 340.259 337.017 344.35 c 1
 279.27 374.42 210.866 305.55 161.52 234.74 c 0
 97.1133 144.53 121.659 78.79 180.543 78.5703 c 0
 333.582 78 434.886 149.63 448.464 266.75 c 24
519.533 418 m 1
 544.652 407.486 589.212 379.28 591.423 372 c 0
 593.478 367.149 641.995 306.851 643.08 302 c 0
 654.39 217.61 665.128 186.24 608.937 109.61 c 0
 554.057 34.9199 458.942 12.6104 370.389 0 c 0
 295.757 -10.6699 220.669 -18.4297 148.433 -15.5195 c 0
 128.233 -14.5498 12.835 3.26953 -4.05469 12 c 0
 -12.9004 16.8496 -65.3652 62.2998 -69.4756 72 c 0
 -78.1514 94.3105 -7.66309 259.96 12.7607 282.27 c 0
 24.8555 295.231 73.9707 325.146 133.907 358.169 c 1
 108.862 360.095 104.95 382.933 99.8916 386 c 0
 65.5928 406.795 84.9287 456.24 81.6445 464 c 0
 74.6982 481.854 105.675 573.179 122.006 591.018 c 0
 148.805 619.739 331.017 744 435.017 744 c 0
 458.309 744 592.536 703.4 598.437 684 c 0
 600.071 680.12 625.7 631.88 626.562 628 c 0
 635.605 560.494 631.773 543.292 586.818 482 c 0
 582.167 475.667 524.864 423.432 519.533 418 c 1
EndSplineSet
EndChar
StartChar: nine
Encoding: 57 57 9
Width: 487
Flags: W
HStem: 315 98<145.415 190.695>
Fore
356.885 554.643 m 1
 354.338 566.043 280.037 610.114 269.577 615.443 c 0
 224.331 639 170.731 585.043 132.062 529.557 c 0
 81.6006 458.886 144.568 397.043 190.695 413 c 1
 190.695 413 312.695 413 356.885 554.643 c 1
522.128 486.852 m 24
 511.839 342.177 506.292 240.107 417.608 115.9 c 8
 363.085 39.5381 304.815 3.53809 217.121 -19 c 24
 109.843 -46.5723 21.0566 -54.4541 -46.6484 15.2002 c 24
 -64.7773 33.8516 -63.7207 57.6484 -53.252 85.5 c 24
 -45.6582 105.703 -34.3721 121.488 -13.582 127.3 c 24
 11.0156 134.176 19.3936 113.132 41.6328 106.4 c 24
 79.0322 95.0791 99.0625 82.625 140.213 83.5996 c 24
 182.621 84.6045 209.135 91.7383 249.737 112.1 c 24
 290.282 132.432 319.037 146.229 342.492 185 c 24
 362.882 218.702 343.329 243.087 357.067 279 c 16
 363.297 295.286 359.656 340.806 360.468 355 c 1
 342.082 350.708 352.107 353.61 333.763 351 c 0
 275.289 342.644 202.012 312.714 145.415 315 c 0
 129.592 315.757 12.3389 364.8 -0.897461 371.643 c 0
 -7.82715 375.443 1.6709 449.4 -1.54688 457 c 0
 -8.35156 474.471 22.1016 575.314 38.0986 592.8 c 0
 64.3418 620.914 260.944 719.528 296.169 721.043 c 0
 319.102 721.8 463.464 678.485 469.243 659.485 c 0
 470.845 655.686 502.764 614.8 503.607 611 c 0
 511.059 555.381 525.73 537.49 522.128 486.852 c 24
EndSplineSet
EndChar
StartChar: AE
Encoding: 198 198 10
Width: 776
Flags: W
Fore
193 267 m 1
 322 279 l 1
 217 396 l 1
 193 267 l 1
297 10 m 0
 276 16 262 24 257 34 c 0
 250 49 270 104 294 168 c 1
 293 173 292 177 289 179 c 0
 279 187 162 170 151 162 c 0
 137 151 126 28 112 18 c 0
 101 9 -6 -8 -17 2 c 0
 -77 51 1 603 112 647 c 0
 131 655 286 638 306 631 c 0
 318 626 346 618 361 597 c 1
 519 660 761 720 799 687 c 0
 811 676 817 562 808 549 c 0
 791 524 596 545 580 518 c 0
 573 507 574 430 583 420 c 0
 603 398 747 457 766 441 c 0
 777 432 797 345 790 332 c 0
 776 308 597 325 580 308 c 0
 570 299 543 207 548 195 c 0
 563 158 780 231 798 203 c 0
 806 190 788 80 782 66 c 0
 752 4 416 -24 297 10 c 0
EndSplineSet
EndChar
StartChar: Oslash
Encoding: 216 216 11
Width: 713
Flags: W
Fore
183 -12 m 1
 131 -10 33 -3 18 4 c 0
 8 9 -57 59 -62 69 c 0
 -76 93 1 272 18 295 c 0
 46 332 343 502 390 505 c 0
 405 505 458 494 511 478 c 1
 560 554 607 615 632 618 c 0
 651 619 784 586 793 569 c 0
 805 546 709 397 696 376 c 1
 710 297 725 189 664 117 c 0
 607 50 474 21 438 4 c 1
 426 -25 353 -253 325 -270 c 0
 299 -286 88 -275 67 -254 c 0
 40 -227 108 -117 183 -12 c 1
450 324 m 1
 415 340 350 356 341 359 c 0
 274 387 213 322 180 246 c 0
 145 167 166 81 228 85 c 0
 233 85 262 83 276 84 c 1
 316 136 355 182 366 198 c 0
 377 213 414 263 450 324 c 1
EndSplineSet
EndChar
StartChar: Aring
Encoding: 197 197 12
Width: 476
Flags: W
HStem: 664 49<242.5 293>
VStem: 283 65<726.5 773.5>
Fore
294 828 m 1
 319 819 348 799 348 748 c 0
 348 705 310 664 276 664 c 0
 230 664 130 702 130 744 c 0
 130 776 157 815 196 836 c 0
 212 845 242 838 242 838 c 1
 294 828 l 1
190 776 m 0
 180 765 180 750 188 738 c 0
 205 713 224 713 261 713 c 0
 275 713 283 718 283 735 c 0
 283 755 266 773 244 782 c 0
 225 790 205 791 190 776 c 0
211 258 m 1
 295 258 l 1
 232 384 l 1
 211 258 l 1
-7 -9 m 0
 -71 42 10 570 122 636 c 0
 140 647 296 627 316 620 c 0
 405 588 559 105 526 39 c 0
 510 8 321 -24 307 0 c 0
 298 15 317 154 300 168 c 0
 289 176 198 160 187 152 c 0
 172 142 136 17 122 7 c 0
 111 -2 4 -18 -7 -9 c 0
EndSplineSet
EndChar
StartChar: A
Encoding: 65 65 13
Width: 485
Flags: W
Fore
218 267 m 1
 302 267 l 1
 239 393 l 1
 218 267 l 1
0 0 m 0
 -64 51 17 579 129 645 c 0
 147 656 303 636 323 629 c 0
 412 597 566 114 533 48 c 0
 517 17 328 -15 314 9 c 0
 305 24 324 163 307 177 c 0
 296 185 205 169 194 161 c 0
 179 151 143 26 129 16 c 0
 118 7 11 -9 0 0 c 0
EndSplineSet
EndChar
StartChar: B
Encoding: 66 66 14
Width: 530
Flags: W
Fore
195 103 m 1
 367 73 461 214 389 281 c 0
 350 316 272 295 223 304 c 1
 195 103 l 1
256 454 m 1
 362 435 446 488 413 546 c 1
 340 577 268 562 268 562 c 1
 256 454 l 1
-31 6 m 0
 -63 34 -68 176 -41 187 c 0
 -21 195 40 183 58 184 c 0
 116 187 175 493 123 515 c 0
 111 520 19 514 10 523 c 0
 -4 536 44 660 58 676 c 0
 91 713 445 693 494 684 c 0
 633 659 634 409 413 370 c 1
 593 304 575 56 405 23 c 0
 357 13 6 -26 -31 6 c 0
EndSplineSet
EndChar
StartChar: C
Encoding: 67 67 15
Width: 563
Flags: W
Fore
425 20 m 0
 362 4 276 -13 199 -12 c 0
 178 -12 24 -6 5 4 c 0
 -5 10 -71 74 -75 85 c 0
 -86 109 -10 288 5 311 c 0
 33 351 328 552 377 553 c 0
 414 553 621 471 619 440 c 0
 616 401 365 379 328 375 c 0
 258 369 196 326 167 262 c 0
 138 198 154 121 215 101 c 0
 313 69 365 210 457 214 c 0
 473 215 595 215 611 214 c 0
 721 205 641 75 425 20 c 0
EndSplineSet
EndChar
StartChar: D
Encoding: 68 68 16
Width: 571
Flags: W
Fore
239 180 m 1
 239 180 374 204 382 276 c 1
 392 329 338 387 290 411 c 1
 239 180 l 1
-22 18 m 0
 -38 39 -26 189 -6 195 c 0
 -1 197 38 194 43 195 c 0
 85 201 156 443 123 470 c 0
 110 481 -31 470 -38 486 c 0
 -64 546 -52 711 204 647 c 0
 264 632 323 618 382 599 c 0
 527 551 637 424 624 276 c 0
 607 90 418 -21 220 -15 c 0
 193 -14 -5 -5 -22 18 c 0
EndSplineSet
EndChar
StartChar: E
Encoding: 69 69 17
Width: 535
Flags: W
Fore
-33 12 m 0
 -52 47 112 312 72 348 c 0
 58 361 -126 392 -120 421 c 0
 -118 431 -43 474 -33 479 c 0
 44 519 549 670 581 610 c 0
 588 597 591 491 581 479 c 0
 562 457 336 474 318 450 c 0
 310 440 309 356 318 348 c 0
 339 328 507 406 528 392 c 0
 540 383 554 293 546 282 c 0
 530 260 336 275 318 260 c 0
 307 252 277 169 283 158 c 0
 300 124 536 190 555 165 c 0
 563 154 544 54 537 41 c 0
 499 -25 0 -48 -33 12 c 0
EndSplineSet
EndChar
StartChar: F
Encoding: 70 70 18
Width: 467
Flags: W
Fore
19 23 m 0
 -8 56 129 307 101 340 c 0
 88 356 -128 364 -119 409 c 0
 -116 426 2 459 19 464 c 0
 77 482 473 653 501 588 c 0
 507 576 509 475 501 464 c 0
 487 443 308 460 294 437 c 0
 288 427 287 348 294 340 c 0
 310 323 444 400 460 381 c 0
 464 377 475 332 474 326 c 0
 468 299 310 272 295 260 c 0
 270 240 288 45 267 23 c 0
 245 0 38 -1 19 23 c 0
EndSplineSet
EndChar
StartChar: G
Encoding: 71 71 19
Width: 644
Flags: W
HStem: 22 194<430 463>
Fore
584 216 m 1
 594 226 610 225 618 216 c 1
 679 210 682 147 633 94 c 1
 661 -110 741 -337 560 -252 c 0
 547 -246 463 -201 463 -187 c 0
 463 -164 487 -64 515 30 c 1
 490 24 462 22 430 22 c 0
 354 25 281 -11 204 -10 c 0
 184 -10 29 -5 11 6 c 0
 1 12 -57 76 -62 87 c 0
 -72 112 -4 298 11 321 c 0
 38 362 334 554 382 555 c 0
 418 556 625 481 624 450 c 0
 623 411 371 382 334 377 c 0
 258 369 186 333 156 265 c 0
 127 197 155 119 221 103 c 0
 317 80 370 212 463 216 c 0
 474 217 542 216 584 216 c 1
EndSplineSet
EndChar
StartChar: H
Encoding: 72 72 20
Width: 566
Flags: W
Fore
-5 -3 m 0
 -91 40 15 589 116 602 c 0
 129 604 220 594 229 586 c 0
 249 567 189 403 205 384 c 0
 215 372 327 353 342 360 c 0
 370 372 403 582 431 594 c 0
 445 600 555 584 568 578 c 0
 645 540 557 26 463 5 c 0
 450 2 352 4 342 13 c 0
 322 31 382 196 366 215 c 0
 354 229 221 235 205 223 c 0
 182 205 195 6 173 -11 c 0
 157 -24 13 -12 -5 -3 c 0
EndSplineSet
EndChar
StartChar: I
Encoding: 73 73 21
Width: 213
Flags: W
Fore
-4 -4 m 0
 -53 54 9 522 117 593 c 0
 125.398 598.521 204.888 590.097 214 585 c 0
 273 552 181 42 109 -4 c 0
 98.5762 -10.6592 3.98242 -13.4492 -4 -4 c 0
EndSplineSet
EndChar
StartChar: J
Encoding: 74 74 22
Width: 233
Flags: W
Fore
-32 0 m 0
 23 44 29 641 137 657 c 0
 148 658 233 652 243 648 c 0
 324 620 162 83 128 0 c 0
 119 -23 45 -187 21 -195 c 0
 -10 -206 -169 -115 -165 -89 c 0
 -162 -70 -45 -11 -32 0 c 0
EndSplineSet
EndChar
StartChar: K
Encoding: 75 75 23
Width: 646
Flags: W
Fore
-55 11 m 0
 -66 33 4 197 9 220 c 0
 20 264 -23 614 26 640 c 0
 40 648 157 657 171 648 c 0
 194 633 184 447 203 430 c 0
 231 406 463 545 478 592 c 0
 481 603 486 695 494 705 c 0
 514 730 714 648 720 608 c 0
 726 564 484 448 478 414 c 0
 469 373 675 179 671 140 c 0
 667 93 433 -59 397 -38 c 0
 360 -17 383 263 348 285 c 0
 333 295 201 296 187 285 c 0
 155 259 240 21 219 -6 c 0
 195 -36 -39 -22 -55 11 c 0
EndSplineSet
EndChar
StartChar: L
Encoding: 76 76 24
Width: 494
Flags: W
Fore
-27 9 m 0
 -108 83 44 681 141 692 c 0
 153 694 237 688 248 684 c 0
 329 648 119 234 168 195 c 0
 198 171 496 270 523 222 c 0
 532 206 514 70 505 53 c 0
 475 -6 26 -40 -27 9 c 0
EndSplineSet
EndChar
StartChar: M
Encoding: 77 77 25
Width: 829
Flags: W
Fore
-36 13 m 0
 -107 69 30 642 126 675 c 0
 146 682 291 691 303 675 c 0
 314 662 298 544 303 530 c 0
 309 514 392 435 408 433 c 0
 455 426 549 677 578 691 c 0
 596 700 744 698 763 691 c 0
 866 656 901 33 804 -11 c 0
 773 -25 549 -11 529 13 c 1
 511 37 724 404 610 401 c 0
 590 400 508 289 489 288 c 0
 476 287 397 336 384 336 c 0
 323 334 355 37 336 13 c 0
 308 -20 1 -16 -36 13 c 0
EndSplineSet
EndChar
StartChar: N
Encoding: 78 78 26
Width: 705
Flags: W
Fore
-37 21 m 0
 -37 107 42 666 123 678 c 0
 135 680 226 672 238 669 c 0
 287 654 442 315 442 261 c 0
 442 317 515 683 567 696 c 0
 581 699 726 690 729 675 c 0
 747 588 711 57 629 3 c 0
 620 -2 541 11 531 12 c 0
 419 26 349 129 300 234 c 0
 292 252 230 386 220 403 c 1
 220 355 156 31 114 12 c 0
 91 2 -37 3 -37 21 c 0
EndSplineSet
EndChar
StartChar: O
Encoding: 79 79 27
Width: 645
Flags: W
Fore
480 275 m 0
 474 290 366 348 351 355 c 0
 286 386 228 315 190 242 c 0
 140 149 181 60 238 81 c 0
 278 96 494 240 480 275 c 0
222 -16 m 0
 201 -15 47 -9 28 0 c 0
 18 5 -47 55 -53 65 c 0
 -66 88 11 268 28 291 c 0
 56 328 353 499 399 501 c 0
 429 502 629 445 641 420 c 0
 644 415 656 377 658 372 c 0
 685 285 718 192 674 113 c 0
 631 36 537 13 448 0 c 0
 373 -11 297 -19 222 -16 c 0
EndSplineSet
EndChar
StartChar: P
Encoding: 80 80 28
Width: 647
Flags: W
Fore
285 409 m 1
 441 381 553 471 498 542 c 0
 461 590 393 550 338 560 c 1
 285 409 l 1
-8 0 m 0
 -86 35 71 634 187 684 c 0
 220 698 489 703 524 702 c 0
 712 694 775 415 569 302 c 0
 466 246 340 280 231 240 c 0
 199 228 178 7 151 -8 c 0
 136 -17 8 -7 -8 0 c 0
EndSplineSet
EndChar
StartChar: Q
Encoding: 81 81 29
Width: 743
Flags: W
Fore
536 312 m 0
 529 329 410 393 394 401 c 0
 322 435 259 357 216 276 c 0
 162 173 207 76 270 99 c 0
 313 115 551 274 536 312 c 0
650 49 m 1
 711 -22 772 -112 758 -132 c 0
 713 -196 565 -90 485 8 c 1
 408 -3 330 -10 252 -8 c 0
 229 -7 59 0 39 10 c 0
 28 15 -44 71 -50 81 c 0
 -65 107 20 305 39 330 c 0
 70 371 396 559 447 561 c 0
 480 562 699 500 714 472 c 0
 716 467 729 424 731 418 c 0
 761 323 797 221 749 134 c 0
 727 94 691 67 650 49 c 1
EndSplineSet
EndChar
StartChar: R
Encoding: 82 82 30
Width: 633
Flags: W
Fore
269 403 m 1
 425 375 537 465 482 536 c 0
 446 583 378 544 323 554 c 1
 269 403 l 1
504 274 m 1
 563 180 670 45 642 21 c 0
 629 9 500 -10 482 -6 c 0
 444 4 372 163 350 257 c 1
 304 254 259 250 216 234 c 0
 184 222 163 0 136 -15 c 0
 121 -23 -7 -13 -24 -6 c 0
 -102 29 55 628 172 678 c 0
 205 692 473 697 509 696 c 0
 697 688 759 409 553 296 c 1
 504 274 l 1
EndSplineSet
EndChar
StartChar: S
Encoding: 83 83 31
Width: 605
Flags: W
Fore
-12 196 m 0
 -2 202 74 243 85 244 c 0
 107 247 245 160 263 147 c 0
 353 86 431 145 392 180 c 0
 377 193 248 267 231 277 c 1
 138 325 -25 321 21 422 c 0
 33 448 143 631 166 648 c 0
 190 664 397 706 424 696 c 0
 454 686 591 531 586 503 c 0
 576 448 353 375 344 406 c 1
 341 412 348 464 344 470 c 0
 334 483 244 432 231 422 c 0
 198 398 223 343 279 325 c 0
 426 279 634 302 634 147 c 0
 634 -15 418 -14 231 -14 c 0
 7 -14 -110 137 -12 196 c 0
EndSplineSet
EndChar
StartChar: T
Encoding: 84 84 32
Width: 559
Flags: W
Fore
197 436 m 1
 72 449 -58 433 -58 472 c 0
 -58 493 -12 644 9 649 c 0
 92 673 557 661 607 616 c 0
 620 604 589 471 582 455 c 0
 564 418 480 429 389 421 c 1
 377 271 299 58 270 0 c 0
 262 -15 110 -9 110 8 c 0
 110 103 141 286 197 436 c 1
EndSplineSet
EndChar
StartChar: U
Encoding: 85 85 33
Width: 496
Flags: W
Fore
-11 103 m 0
 -24 178 -30 664 36 678 c 0
 52 682 173 669 188 660 c 0
 236 628 152 331 151 289 c 0
 151 232 246 201 266 270 c 0
 278 313 316 648 364 660 c 0
 381 664 511 642 527 632 c 0
 590 591 426 207 399 149 c 0
 287 -85 17 -51 -11 103 c 0
EndSplineSet
EndChar
StartChar: V
Encoding: 86 86 34
Width: 549
Flags: W
Fore
155 -12 m 0
 24 39 -84 648 -30 703 c 0
 -18 716 124 706 137 693 c 0
 177 657 256 229 276 174 c 1
 297 230 387 648 443 684 c 0
 455 692 575 688 582 675 c 0
 618 609 444 57 304 -2 c 0
 289 -8 170 -17 155 -12 c 0
EndSplineSet
EndChar
StartChar: W
Encoding: 87 87 35
Width: 829
Flags: W
Fore
396 684 m 0
 419 689 444 687 456 690 c 0
 470 693 526 690 540 684 c 0
 571 672 526 552 537 468 c 0
 550 364 599 238 609 210 c 1
 627 261 726 603 777 637 c 0
 788 645 896 641 902 629 c 0
 933 576 735 51 633 0 c 1
 619 -2 532 -18 518 11 c 1
 484 17 449 63 419 128 c 1
 381 67 342 51 307 16 c 0
 296 5 173 1 158 6 c 0
 36 51 -84 666 -27 721 c 0
 -14 733 126 723 140 711 c 0
 192 669 259 247 279 192 c 1
 288 217 327 312 335 419 c 1
 364 538 312 658 348 669 c 0
 354 671 377 680 396 684 c 0
EndSplineSet
EndChar
StartChar: X
Encoding: 88 88 36
Width: 424
Flags: W
Fore
215 540 m 1
 296 630 337 714 369 703 c 0
 377 700 492 636 494 628 c 0
 497 618 392 466 302 318 c 1
 378 158 469 14 461 2 c 0
 458 -3 317 -28 311 -30 c 0
 289 -36 256 44 194 165 c 1
 137 75 101 -22 94 -23 c 0
 87 -25 -34 15 -40 18 c 0
 -76 37 15 208 110 375 c 1
 47 520 -17 646 2 653 c 0
 5 654 132 686 135 686 c 0
 143 687 177 613 215 540 c 1
EndSplineSet
EndChar
StartChar: Y
Encoding: 89 89 37
Width: 421
Flags: W
Fore
246 435 m 1
 272 527 321 696 382 696 c 0
 402 696 476 675 474 655 c 0
 465 573 434 383 396 315 c 0
 348 228 222 48 153 -12 c 0
 126 -36 -8 1 12 30 c 0
 84 138 96 174 165 294 c 1
 82 396 -100 603 -66 633 c 0
 -54 644 35 697 48 688 c 0
 66 675 178 522 246 435 c 1
EndSplineSet
EndChar
StartChar: Z
Encoding: 90 90 38
Width: 520
Flags: W
Fore
-50 25 m 0
 -63 31 -53 145 -50 159 c 0
 -40 214 295 485 337 520 c 1
 302 520 7 458 -17 493 c 0
 -28 509 -17 627 -2 640 c 0
 37 674 538 717 551 635 c 0
 553 622 543 520 534 510 c 0
 484 453 194 222 167 176 c 1
 208 176 500 200 518 159 c 0
 523 146 523 30 509 25 c 0
 421 -6 19 -3 -50 25 c 0
EndSplineSet
EndChar
StartChar: comma
Encoding: 44 44 39
Width: 485
Flags: W
TeX: 0 0 0 0
Fore
218 267 m 1
 302 267 l 1
 239 393 l 1
 218 267 l 1
0 0 m 0
 -64 51 17 579 129 645 c 0
 147 656 303 636 323 629 c 0
 412 597 566 114 533 48 c 0
 517 17 328 -15 314 9 c 0
 305 24 324 163 307 177 c 0
 296 185 205 169 194 161 c 0
 179 151 143 26 129 16 c 0
 118 7 11 -9 0 0 c 0
EndSplineSet
EndChar
